<?xml version="1.0" standalone="no"?><!DOCTYPE svg PUBLIC "-//W3C//DTD SVG 1.1//EN" "http://www.w3.org/Graphics/SVG/1.1/DTD/svg11.dtd"><svg t="1721983671943" class="icon" viewBox="0 0 1024 1024" version="1.1" xmlns="http://www.w3.org/2000/svg" p-id="12207" xmlns:xlink="http://www.w3.org/1999/xlink" width="200" height="200"><path d="M501.76 339.84l4.266667 2.986667 414.933333 331.434666 2.901333 2.56c17.621333 16.64 19.84 43.946667 4.992 63.445334l-3.2 3.754666-172.416 181.674667-2.389333 2.133333a47.573333 47.573333 0 0 1-63.573333-2.773333l-3.328-3.626667-340.693334-412.586666a47.616 47.616 0 0 1-0.810666-59.605334l3.456-3.925333 96.426666-98.56a47.530667 47.530667 0 0 1 59.434667-6.912z m121.088 199.765333l-81.792 81.749334 181.205333 219.349333 119.594667-126.08-219.008-175.018667z m-389.418667 6.272l34.56 101.12 104.106667 37.546667v9.472l-101.12 34.517333-37.546667 104.106667H224l-34.517333-101.077333-104.106667-37.546667v-9.472l101.12-34.56 37.546667-104.106667h9.429333z m245.589334-121.045333L424.661333 480.426667l64.682667 78.250666 69.802667-69.845333-80.128-64z m214.826666-304.085333l34.517334 101.12 104.106666 37.546666v9.514667l-101.12 34.517333-37.546666 104.106667h-9.429334l-34.56-101.12-104.106666-37.546667V259.413333l101.12-34.517333 37.546666-104.106667h9.472zM233.472 85.333333l34.474667 101.12 104.106666 37.546667v9.472l-101.077333 34.56-37.546667 104.106667H224l-34.517333-101.12L85.333333 233.472V224l101.12-34.517333L224 85.333333h9.429333z" p-id="12208" fill="#ffffff"></path></svg>