<?xml version="1.0" encoding="UTF-8"?>
<svg width="14px" height="13px" viewBox="0 0 14 13" version="1.1" xmlns="http://www.w3.org/2000/svg" xmlns:xlink="http://www.w3.org/1999/xlink">
    <title>gftuceng</title>
    <defs>
        <polygon id="path-1" points="0 0 14 0 14 13 0 13"></polygon>
    </defs>
    <g id="页面-1" stroke="none" stroke-width="1" fill="none" fill-rule="evenodd">
        <g id="iPhone-SE备份" transform="translate(-24.000000, -17.000000)">
            <g id="gftuceng" transform="translate(24.000000, 17.000000)">
                <mask id="mask-2" fill="#FFFFFF">
                    <use xlink:href="#path-1"></use>
                </mask>
                <g id="Clip-2"></g>
                <path d="M14,6.5004992 C14.0003991,6.2960839 13.8859659,6.10984571 13.7062822,6.02268616 L11.8007749,5.09511828 L13.7062822,4.16765333 C13.8873065,4.07983503 14,3.89359684 14,3.68984028 C14.0003991,3.48542498 13.8859659,3.29926913 13.7062822,3.21202723 L7.21794096,0.050115715 C7.07795578,-0.0167052383 6.92084262,-0.0167052383 6.78085744,0.050115715 L0.292456179,3.21202723 C0.112832539,3.29926913 -0.00166077332,3.48542498 -0.00120194127,3.68984028 C-0.00120194127,3.89359684 0.111511924,4.07983503 0.292456179,4.16765333 L2.19802349,5.09511828 L0.292456179,6.02268616 C0.112832539,6.10984571 -0.00166077332,6.2960839 -0.00120194127,6.5004992 C-0.00120194127,6.70425576 0.111511924,6.89041161 0.292456179,6.97831225 L2.19802349,7.90579778 L0.292456179,8.83326274 C0.112832539,8.92052522 -0.00166077332,9.10674282 -0.00120194127,9.31107578 C-0.00120194127,9.51485293 0.111511924,9.70109112 0.292456179,9.78888883 L6.78085744,12.9508827 C6.84908921,12.9824816 6.92428422,13 6.9993992,13 C7.07451417,13 7.14962915,12.9824816 7.21794096,12.9508827 L13.7062822,9.78888883 C13.8873065,9.70109112 14,9.51485293 14,9.31107578 C14.0003991,9.10674282 13.8859659,8.92052522 13.7062822,8.83326274 L11.8007749,7.90579778 L13.7062822,6.97831225 C13.8873065,6.89041161 14,6.70425576 14,6.5004992 Z M1.70623449,3.68984028 L6.9993992,1.11107847 L12.2924839,3.68984028 L10.400683,4.6103267 L10.3801934,4.62084596 L6.9993992,6.2685815 L3.61860497,4.62084596 L3.59813543,4.6103267 L1.70623449,3.68984028 Z M12.2924839,9.31107578 L6.9993992,11.8898376 L1.70623449,9.31107578 L3.3966216,8.48902984 L6.78085744,10.1402238 C6.84908921,10.1718227 6.92428422,10.1894234 6.9993992,10.1894234 C7.07451417,10.1894234 7.14962915,10.1718227 7.21794096,10.1402238 L10.6021768,8.48902984 L12.2924839,9.31107578 Z M10.3937998,7.42444401 L6.9993992,9.07926101 L1.70967609,6.5004992 L3.3966216,5.67837092 L6.78085744,7.3296266 C6.84908921,7.36124613 6.92428422,7.3787645 6.9993992,7.3787645 C7.07451417,7.3787645 7.14962915,7.36124613 7.21794096,7.3296266 L10.6021768,5.67837092 L12.2891223,6.5004992 L10.3937998,7.42444401 Z" id="Fill-1" fill="#FFFFFF" mask="url(#mask-2)"></path>
            </g>
        </g>
    </g>
</svg>
