<?xml version="1.0" encoding="UTF-8"?>
<svg width="14px" height="14px" viewBox="0 0 14 14" version="1.1" xmlns="http://www.w3.org/2000/svg" xmlns:xlink="http://www.w3.org/1999/xlink">
    <title>tupian</title>
    <g id="页面-1" stroke="none" stroke-width="1" fill="none" fill-rule="evenodd">
        <g id="iPhone-SE备份" transform="translate(-228.000000, -336.000000)" fill="currentColor">
            <path d="M229.076986,344.821234 L231.868914,341.994771 C232.366556,341.490813 233.177331,341.481502 233.68658,341.973771 L240.669948,348.667159 C240.716665,348.714347 240.787232,348.728682 240.848591,348.703458 C240.909971,348.678131 240.949941,348.618371 240.949941,348.551967 L240.949941,337.342869 C240.949941,337.268611 240.92045,337.197387 240.867991,337.144908 C240.81543,337.092367 240.744227,337.062877 240.669948,337.062877 L229.356958,337.062877 C229.202268,337.062877 229.076986,337.188261 229.076986,337.342869 L229.076986,344.821234 Z M229.076986,346.315492 L229.076986,348.667077 C229.076986,348.821767 229.202268,348.947131 229.356958,348.947131 L239.115623,348.949551 C239.165129,348.949633 239.209651,348.919589 239.228169,348.873754 C239.24675,348.827858 239.235614,348.775317 239.199971,348.740946 L232.956708,342.728641 C232.861224,342.636356 232.709179,342.638038 232.615766,342.732558 L229.076986,346.315492 Z M229.399984,336 L240.599934,336 C241.373221,336 242,336.626779 242,337.399984 L242,348.599955 C242,349.373241 241.373221,350 240.599934,350 L229.399984,350 C228.626759,350 228,349.373241 228,348.599955 L228,337.399984 C228,336.626779 228.626759,336 229.399984,336 Z M238.149994,340.900004 C237.570075,340.900004 237.099996,340.429843 237.099996,339.850027 C237.099996,339.270108 237.570075,338.800029 238.149994,338.800029 C238.729892,338.800029 239.199971,339.270108 239.199971,339.850027 C239.199971,340.429843 238.729892,340.900004 238.149994,340.900004 Z" id="tupian"></path>
        </g>
    </g>
</svg>
