<?xml version="1.0" standalone="no"?><!DOCTYPE svg PUBLIC "-//W3C//DTD SVG 1.1//EN" "http://www.w3.org/Graphics/SVG/1.1/DTD/svg11.dtd"><svg t="1721311825050" class="icon" viewBox="0 0 1024 1024" version="1.1" xmlns="http://www.w3.org/2000/svg" p-id="6329" xmlns:xlink="http://www.w3.org/1999/xlink" width="200" height="200"><path d="M309.5 608.4c-34.1-54.1-33.3-123.1 2.2-176.3l-115.6-116c-54.1 53.5-84.6 126.4-84.7 202.5-0.2 76.1 30.1 149.1 83.9 202.8l114.2-113z m-183.7 232c76.3 76.9 180.3 120 288.6 119.6V681c-31.2-6.8-59.7-22.5-82.1-45.3L125.8 840.4z m326.6-156.5v192.5c74.1 0.2 145.3-29.2 197.7-81.7L521.6 666.2c-21.5 11.1-45.1 17.1-69.2 17.7z m103.8-42.3l153.5 154.2c70.6-69.2 110.4-163.9 110.4-262.8H608.4c-2.7 41.6-21.5 80.5-52.2 108.6z m49.7-149.5h306.6c0.1-113.5-44.7-222.5-124.8-303C707.3 108.7 598.1 63.6 484.4 64v300.4c62.1 14.9 109.7 64.9 121.5 127.7zM336 403.8c28.7-27.9 66.8-44.1 106.8-45.3V143.1c-97.4 0-190.9 38.7-259.9 107.5L336 403.8z" p-id="6330"></path></svg>