<?xml version="1.0" standalone="no"?><!DOCTYPE svg PUBLIC "-//W3C//DTD SVG 1.1//EN" "http://www.w3.org/Graphics/SVG/1.1/DTD/svg11.dtd"><svg t="1721616353060" class="icon" viewBox="0 0 1024 1024" version="1.1" xmlns="http://www.w3.org/2000/svg" p-id="6481" xmlns:xlink="http://www.w3.org/1999/xlink" width="200" height="200"><path d="M536.96 977.28c-256 0-464-208-464-464S281.6 49.28 536.96 49.28s464 208 464 464-208 464-464 464z m0-832c-202.88 0-368 165.12-368 368s165.12 368 368 368 368-165.12 368-368-165.12-368-368-368z" p-id="6482"></path><path d="M952.96 561.28c-26.24 0-48-21.76-48-48 0-202.88-165.12-368-368-368-26.24 0-48-21.76-48-48s21.76-48 48-48c256 0 464 208 464 464 0 26.24-21.12 48-48 48z" p-id="6483"></path></svg>