<?xml version="1.0" encoding="UTF-8"?>
<svg width="14px" height="14px" viewBox="0 0 14 14" version="1.1" xmlns="http://www.w3.org/2000/svg" xmlns:xlink="http://www.w3.org/1999/xlink">
    <title>icon_fabu</title>
    <defs>
        <polygon id="path-1" points="0 0 14 0 14 13.4817042 0 13.4817042"></polygon>
    </defs>
    <g id="页面-1" stroke="none" stroke-width="1" fill="none" fill-rule="evenodd">
        <g id="iPhone-SE备份" transform="translate(-1358.000000, -16.000000)">
            <g id="icon_fabu" transform="translate(1358.000000, 16.000000)">
                <g id="编组">
                    <mask id="mask-2" fill="#FFFFFF">
                        <use xlink:href="#path-1"></use>
                    </mask>
                    <g id="Clip-2"></g>
                    <path d="M1.60027317,6.23360601 L4.92305502,8.31960987 C5.08076185,8.41312549 5.17719468,8.58798369 5.17490936,8.77635173 C5.17262403,8.96474003 5.07199168,9.13698538 4.91197999,9.22630829 C4.75206596,9.3156312 4.55795022,9.30795469 4.40497029,9.20629672 L0.240154266,6.59241674 C0.0789510811,6.49138666 -0.0138291354,6.3049023 0.000195326772,6.11003252 C0.0142393216,5.91516275 0.132724541,5.74504413 0.306702097,5.66996022 L13.3076715,0.0398825928 C13.4774496,-0.0334594147 13.6723857,-0.0042522413 13.81515,0.115999484 C13.957973,0.236271464 14.0255756,0.428042281 13.991159,0.615478607 L11.7135512,13.0599017 C11.6826505,13.2286633 11.5731503,13.3706077 11.4211665,13.4389671 C11.2691046,13.5072454 11.0943848,13.4930672 10.9544527,13.4010504 L6.73219111,10.6249106 C6.49877562,10.4717248 6.42943461,10.1513777 6.57714072,9.9093551 C6.72494448,9.66741358 7.03387331,9.59540837 7.26719114,9.74865489 L10.8684504,12.1162386 L12.8350784,1.36886974 L1.60027317,6.23360601 Z" id="Fill-1" fill="#FFFFFF" mask="url(#mask-2)"></path>
                </g>
                <path d="M5.49956198,9.20526373 L5.49956198,13.481441 C5.49956198,13.7678617 5.27569797,14 4.99958405,14 C4.72337246,14 4.49950845,13.7678617 4.49950845,13.481441 L4.49950845,8.96672498 C4.49950845,8.81511909 4.5634389,8.67112894 4.67454077,8.57263069 L10.7529341,3.17586611 C10.9628323,2.98978685 11.2784998,3.01534819 11.4580247,3.2329234 C11.6375495,3.45057963 11.6129188,3.77789442 11.4030207,3.96407496 L5.49956198,9.20471686 L5.49956198,9.20526373 Z" id="Fill-3" fill="#FFFFFF"></path>
            </g>
        </g>
    </g>
</svg>
