<?xml version="1.0" encoding="UTF-8"?>
<svg width="14px" height="14px" viewBox="0 0 14 14" version="1.1" xmlns="http://www.w3.org/2000/svg"
  xmlns:xlink="http://www.w3.org/1999/xlink">
  <title>zujian</title>
  <defs>
    <polygon id="path-1" points="0 0 14 0 14 14 0 14"></polygon>
  </defs>
  <g id="页面-1" stroke="none" stroke-width="1" fill="none" fill-rule="evenodd">
    <g id="iPhone-SE备份" transform="translate(-228.000000, -398.000000)">
      <g id="zujian" transform="translate(228.000000, 398.000000)">
        <mask id="mask-2" fill="#FFFFFF">
          <use xlink:href="#path-1"></use>
        </mask>
        <g id="Clip-2"></g>
        <path
          d="M10.8886751,14 L0.517389411,14 C0.230943414,14 -0.00121538504,13.7678614 -0.00121538504,13.4815415 L-0.00121538504,3.11115612 C-0.00121538504,2.82473499 0.230943414,2.59259634 0.517389411,2.59259634 L3.69098257,2.59259634 C3.64921383,2.42296357 3.62832947,2.24881402 3.62871434,2.07403657 C3.62871434,0.928635603 4.55743056,0 5.70303224,0 C6.84853264,0 7.77724886,0.928635603 7.77724886,2.07403657 C7.77771476,2.24881402 7.75674937,2.42296357 7.71506166,2.59259634 L10.8886751,2.59259634 C11.1750198,2.59259634 11.4071786,2.82473499 11.4071786,3.11115612 L11.4071786,6.28447379 C11.5769071,6.24270868 11.7509908,6.22182613 11.9257834,6.22221097 C13.0713648,6.22221097 14,7.15084657 14,8.29634881 C14,9.44174977 13.0713648,10.3703854 11.9257834,10.3703854 C11.7509908,10.3708512 11.5769071,10.3498877 11.4071786,10.3082036 L11.4071786,13.4815415 C11.4071786,13.7678614 11.1750198,14 10.8886751,14 Z M1.03589292,12.9629817 L10.3700703,12.9629817 L10.3700703,9.44746158 C10.3719744,9.24135018 10.4934319,9.05525037 10.6811886,8.97036309 C10.8673046,8.89457016 11.08024,8.93072473 11.230887,9.06371682 C11.6452725,9.44033194 12.2837548,9.41999627 12.6733667,9.01784001 C13.0629786,8.61566351 13.0629786,7.97693284 12.6733667,7.57477658 C12.2837548,7.17260008 11.6452725,7.1522644 11.230887,7.52887953 C11.08261,7.66671248 10.8666766,7.7033329 10.6811886,7.62223325 C10.4934319,7.53742699 10.3719744,7.35124617 10.3700703,7.14523603 L10.3700703,3.62961463 L6.85424495,3.62961463 C6.64811565,3.62771069 6.46199968,3.50626375 6.37710504,3.31852332 C6.29599834,3.13307166 6.3326422,2.91713674 6.47046687,2.76887264 C6.84711469,2.35452308 6.82677725,1.71611649 6.42458608,1.32651812 C6.02237466,0.936940013 5.38358854,0.936940013 4.98139737,1.32651812 C4.57918595,1.71611649 4.55884851,2.35452308 4.93549633,2.76887264 C5.07334125,2.91713674 5.10996486,3.13307166 5.02885816,3.31852332 C4.94404454,3.50626375 4.75784755,3.62771069 4.55181953,3.62961463 L1.03589292,3.62961463 L1.03589292,12.9629817 Z"
          id="Fill-1" fill="currentColor" mask="url(#mask-2)"></path>
      </g>
    </g>
  </g>
</svg>
