<?xml version="1.0" standalone="no"?><!DOCTYPE svg PUBLIC "-//W3C//DTD SVG 1.1//EN" "http://www.w3.org/Graphics/SVG/1.1/DTD/svg11.dtd"><svg t="1745453605364" class="icon" viewBox="0 0 1024 1024" version="1.1" xmlns="http://www.w3.org/2000/svg" p-id="5664" xmlns:xlink="http://www.w3.org/1999/xlink" width="200" height="200"><path d="M725.312 74.688a224 224 0 1 0 0 448 224 224 0 0 0 0-448z m0 64a160 160 0 1 1 0 320 160 160 0 0 1 0-320zM256 352a181.312 181.312 0 1 0 0 362.688A181.312 181.312 0 0 0 256 352z m0 64a117.312 117.312 0 1 1 0 234.688A117.312 117.312 0 0 1 256 416zM618.688 650.688a138.688 138.688 0 1 0 0 277.312 138.688 138.688 0 0 0 0-277.312z m0 64a74.688 74.688 0 1 1 0 149.312 74.688 74.688 0 0 1 0-149.312z" p-id="5665"></path></svg>