<?xml version="1.0" standalone="no"?><!DOCTYPE svg PUBLIC "-//W3C//DTD SVG 1.1//EN" "http://www.w3.org/Graphics/SVG/1.1/DTD/svg11.dtd"><svg t="1721478728262" class="icon" viewBox="0 0 1024 1024" version="1.1" xmlns="http://www.w3.org/2000/svg" p-id="4356" xmlns:xlink="http://www.w3.org/1999/xlink" width="200" height="200"><path d="M512 13.032727A510.138182 510.138182 0 0 0 90.530909 809.658182a35.141818 35.141818 0 0 0 28.858182 15.127273 33.978182 33.978182 0 0 0 20.247273-6.05091 34.676364 34.676364 0 0 0 9.309091-48.407272 438.923636 438.923636 0 0 1-75.17091-228.538182h56.785455a37.701818 37.701818 0 0 0 0-75.170909H76.334545A437.992727 437.992727 0 0 1 162.909091 256l32.581818 32.581818a37.701818 37.701818 0 0 0 53.294546-53.061818L214.109091 200.378182a439.156364 439.156364 0 0 1 263.214545-116.363637 34.443636 34.443636 0 0 0-2.094545 11.869091v59.345455a37.701818 37.701818 0 0 0 75.170909 0V96.349091a40.96 40.96 0 0 0-2.094545-11.869091A437.992727 437.992727 0 0 1 809.890909 199.214545l-36.305454 36.305455a37.701818 37.701818 0 0 0 53.294545 53.061818L861.090909 254.603636a436.596364 436.596364 0 0 1 88.203636 212.014546h-55.854545a37.701818 37.701818 0 0 0 0 75.170909h58.88a437.294545 437.294545 0 0 1-72.610909 224.814545 34.909091 34.909091 0 0 0 58.181818 38.632728A510.370909 510.370909 0 0 0 512 13.032727z" p-id="4357"></path><path d="M608.814545 377.250909L498.036364 488.727273a51.432727 51.432727 0 0 0-8.610909 0 62.370909 62.370909 0 1 0 62.370909 62.138182 46.545455 46.545455 0 0 0 0-7.912728l111.010909-111.010909a37.469091 37.469091 0 0 0-53.061818-53.061818z" p-id="4358"></path></svg>