<?xml version="1.0" standalone="no"?><!DOCTYPE svg PUBLIC "-//W3C//DTD SVG 1.1//EN" "http://www.w3.org/Graphics/SVG/1.1/DTD/svg11.dtd"><svg t="1721743450912" class="icon" viewBox="0 0 1024 1024" version="1.1" xmlns="http://www.w3.org/2000/svg" p-id="2791" xmlns:xlink="http://www.w3.org/1999/xlink" width="200" height="200"><path d="M512 127.36a384.768 384.768 0 0 0-371.968 286.464c-22.784 8.512-46.72 19.2-71.872 32.384a448.704 448.704 0 0 1 884.352-19.584c-20.864 12.096-40.704 22.592-59.52 31.808A384.704 384.704 0 0 0 512 127.36zM63.488 522.048c8.64-5.12 28.352-18.56 64.576-32.704 36.16-14.08 129.216-44.864 185.6-39.808 68.992 6.144 128.64 35.584 183.744 62.72l5.76 2.88c58.176 28.672 112.96 54.784 178.176 61.056 58.048 5.632 190.016-36.288 214.976-48 24.96-11.712 57.536-28.992 64-32.576a448.64 448.64 0 0 1-896.832 26.368zM885.76 603.392c-79.872 33.472-148.48 42.496-210.496 36.48-78.336-7.552-142.848-39.04-200.32-67.328l-1.408-0.64c-58.368-28.8-108.544-53.504-165.504-58.624-48.896-4.416-105.536 5.632-177.536 47.488a384.64 384.64 0 0 0 755.264 42.624z" p-id="2792"></path></svg>