<?xml version="1.0" standalone="no"?><!DOCTYPE svg PUBLIC "-//W3C//DTD SVG 1.1//EN" "http://www.w3.org/Graphics/SVG/1.1/DTD/svg11.dtd"><svg t="1721818239507" class="icon" viewBox="0 0 1609 1024" version="1.1" xmlns="http://www.w3.org/2000/svg" p-id="18737" xmlns:xlink="http://www.w3.org/1999/xlink" width="314.2578125" height="200"><path d="M1368.761763 623.808703c0-4.733571-33.69017-50.403767-42.777457-83.480325s-25.917763-55.137338-15.544814-59.870909 7.772407 42.543701 28.518305 29.920845 59.607933-6.282209 3.886204-72.464546l2.571322-22.031559s51.864745 0 59.637152-39.387987-36.290712-94.525325-31.118847-100.836753 27.787816 6.311428 32.141533 12.622856 23.726295 55.137338 40.556769 51.981624c5.142645-0.964246 6.399087-6.223769 5.201085-14.113055 2.542103 3.973862 11.278756 7.246455 40.176915-4.76279 45.34878-18.875845-7.772407-42.543701-7.772407-42.543701l12.944272-25.216493-19.547896-17.327208-13.441004 20.453702s-3.477129 61.361107-13.441005 64.6337c-4.295278-18.495991-18.174576-47.42337-28.927379-72.552205-5.230304-12.243002 7.889285 3.564788 15.574034-6.311428 17.035012-21.827022 45.34878-33.076559-14.259153-75.62026-27.232644 4.733571-42.777458-37.78091-20.745898-34.654415s60.163105-12.681295 69.250392-11.103439 5.843915 33.164217 5.843915 33.164218 26.79435 37.81013 29.803967 44.121558 1.285661-39.387987 1.285661-39.387987-29.803966-20.453702-20.716679-29.920845 23.37566-1.577857 32.404509-6.311428 0-31.498702 0-31.498702-41.491796-18.905065-49.264203-31.527921-67.263461-12.535198-97.067428-9.321044c-29.803966-14.171494-132.189357-15.749351-132.189356-15.749351L1077.150407 0s12.096904 27.291083 0 33.602511-39.738622-12.593637-44.939706 0-41.462577 23.112684-46.75132 27.291083-18.992724 23.112684-18.992724 23.112684L956.093708 67.205022l-6.048452 16.801256-18.145356 15.223398-7.772407-11.337195-5.201084-7.56787h20.745898s9.087288-23.609416-29.803966-18.905065c-35.06349-15.749351-60.922814-6.282209-72.581424 3.155714s-19.431017 29.920845-29.803967 34.654416-9.087288 45.699415 0 45.699415h31.089628l11.68783-14.200713s15.544814-59.841689 22.031559-42.514482-31.118847 36.232273 23.37566 36.232273c-16.421401 25.216493-36.290712 33.076559-36.290712 33.076559h-33.66095s-36.290712 22.060779-42.777457 26.79435-31.118847-26.79435-31.118848-26.79435 7.801626 40.907405 7.801627 61.361107-32.404508 26.765131-32.404509 26.765131 5.171865 44.121558 6.457526 66.153117c-15.544814 15.77857-15.544814 44.121558-15.544813 44.121558l-23.37566 14.171494-10.372949 86.636039s-15.544814 26.79435 0 36.232273 41.462577 55.137338 41.462576 55.137338 27.232644 6.311428 38.891255 0 16.859695-42.514481 32.404508-9.437923 16.859695 4.733571 16.859695 4.733571 20.716679 14.171494 6.457526 51.981624c9.087288 11.01578 15.574033 25.187274 15.574033 58.439149v67.730975s41.462577 99.346554 33.69017 122.868312 28.518305-7.889285 41.462577 0 53.150407-74.042403 47.949322-102.268512 32.404508-39.387987 35.06349-53.559481-2.600542-56.715195-16.859695-69.338051 88.155457-102.268512 71.295763-127.572663-33.69017 17.327208-46.75132 9.437922-9.058068-23.638636-9.058068-23.638636 76.847482-6.282209 89.616436-39.387987 25.713226-83.480325 68.490683-4.704351 59.637152 110.274675 69.980882 99.346554-25.917763-75.62026 0-83.480325 9.087288-36.232273 28.518305-36.232273 94.612983 176.427793 69.980882 151.2113-35.06349-14.171494-35.06349-14.171494a360.80331 360.80331 0 0 1 59.607932 89.791754c16.859695-1.577857 53.150407 1.577857 53.150407 1.577857s-28.342988-12.885833-28.342988-17.619404z m69.630247-0.70127a50.432986 50.432986 0 0 0-6.778941 1.490199c-32.725924 9.408703-50.462206-34.449879-42.280725-40.702868s32.784363-31.323384 32.784363-31.323384c24.544443 0 16.362962 45.407219 16.362962 45.407219l13.441004 26.297617a24.252247 24.252247 0 0 0-13.090369-1.256441v0.759709z m128.186275 68.841319s55.897047 42.280725 39.534085 108.112426-46.342246 75.181966-54.377629 83.012813-23.37566 50.111571-32.872022 48.562933-13.382565-42.280725-13.382565-42.280725l-22.00234-42.368383s-80.44149 21.943901-96.073962 14.113054 8.765872-48.562933 8.765873-48.562933l14.989642-17.21033-14.989642-18.817406 17.707062-23.37566s4.09074 29.774747 17.736282 0 64.078528-54.815922 73.867085-64.283064 24.281467 6.252989 21.564046 25.041175 0 0 24.690541 15.661692 0-56.36456 0-56.364559l-14.960422-29.774747-23.37566-4.675132s-5.434841-56.393779 0-40.732087 38.336082 9.408703 38.336082 9.408703c75.152746 50.082351 54.465287 65.744043 54.465288 65.744043l-28.635184-17.239549zM537.231103 118.719133c-16.362962-20.453702 0-40.702868 0-40.702868S515.4333 46.692881 490.888857 31.031188s-34.099244 17.239549-40.907405 20.453703 14.989642 15.661692 14.989642 15.661692l38.189985 46.985076s-66.825168 1.548637-9.554801 87.658725c-10.898901 17.239549-0.555172 34.186903 6.83738 48.562933-10.928121 18.788187-36.816664-26.619033-36.816664-26.619033l-90.989756 80.938223L327.259238 351.073192l-12.272221 62.091596-5.464061-35.998516s-95.431131-25.070395-98.177771 18.788187 24.427565 51.426452 24.427564 51.426451 27.407961-31.060408 32.842802-13.850078-4.09074 48.562933-4.09074 48.562933 12.272221-18.788187 20.453702-3.126494 1.37332 43.829362 1.37332 43.829362 51.806306-18.963504 76.350749-8.006164a61.536425 61.536425 0 0 0 47.715566 0s25.917763 33.076559 43.624825 37.780911 30.008503 42.660579 44.998146 54.815922c32.725924 10.957341 53.179626 31.323384 61.361107 43.829362s-9.554801 35.998516-12.272222 40.702868-13.645541 68.928977-10.928121 71.47108-31.352604 9.963875-31.352604 9.963875l-49.088885 120.618405s-9.525581 0-28.605964 6.252989-9.554801 50.19923 15.10652 123.744899c-113.167413-14.083835-51.806306-267.797403-80.441489-286.614809s-46.371465-59.491054-46.371466-59.491054-12.272221-37.605593-19.080382-57.971637 27.261863-75.152746 1.37332-82.983592-42.280725-29.774747-61.361107-61.098131-64.078528-23.37566-91.340391-53.238066-35.443344-133.124383-20.453702-181.687316-1.37332-59.520274-40.907405-90.843658S9.700899 168.859923 1.519418 164.155571 23.200342 131.25433 31.264945 131.25433s77.724069-68.899757 77.724069-68.899757 72.260009 18.788187 96.804452 17.064231 58.614467-18.642089 58.614467-18.642088l92.713711-18.788187s25.917763 14.083835 31.381823 14.083835 42.368384-28.16767 60.133885-40.673648 84.50301-9.408703 84.50301-9.408703-42.280725 25.070395-16.362962 17.239549 152.701498-50.111571 188.144843 3.623227c9.876216 27.670937-35.443344 63.172721-35.443344 63.172721s-95.460351 63.20194-99.551092 63.20194-16.362962-14.142274-32.696704-34.508317z" fill="#ffffff" p-id="18738"></path></svg>