<?xml version="1.0" standalone="no"?><!DOCTYPE svg PUBLIC "-//W3C//DTD SVG 1.1//EN" "http://www.w3.org/Graphics/SVG/1.1/DTD/svg11.dtd"><svg t="1719629284165" class="icon" viewBox="0 0 1024 1024" version="1.1" xmlns="http://www.w3.org/2000/svg" p-id="1478" xmlns:xlink="http://www.w3.org/1999/xlink" width="200" height="200"><path d="M902.573115 538.712435l60.111478 4.035763C946.843521 778.856364 748.861121 963.768529 511.970002 963.768529 262.851599 963.768529 60.231471 761.148401 60.231471 512.029998c0-235.205218 183.526247-433.066625 417.888514-450.473605l4.456739 60.051482C279.535621 136.665992 120.463942 308.145945 120.463942 512.029998c0 215.870351 175.635709 391.50706 391.50606 391.50706 205.329969 0 376.869918-160.216612 390.603113-364.824623zM1023.940004 451.737531v30.116235l-30.176232 1.02394h-450.653595V0L573.286409 0.059996C821.801848 0.601965 1023.940004 203.282089 1023.940004 451.737531z m-61.075422-29.091295C949.434369 231.711423 795.661379 76.735504 603.341648 61.556393v361.088843H962.863582z" p-id="1479"></path></svg>