<?xml version="1.0" standalone="no"?><!DOCTYPE svg PUBLIC "-//W3C//DTD SVG 1.1//EN" "http://www.w3.org/Graphics/SVG/1.1/DTD/svg11.dtd"><svg t="1745802214452" class="icon" viewBox="0 0 1024 1024" version="1.1" xmlns="http://www.w3.org/2000/svg" p-id="9121" xmlns:xlink="http://www.w3.org/1999/xlink" width="200" height="200"><path d="M0.00256 409.152c394.112 0 552.704 343.616 965.12 357.12 14.656-138.752-2.24-118.656 0-232.064-379.456 0-428.16-357.12-965.12-357.12 1.152 100.544 1.728 102.272 0 232.064" fill="#ffffff" p-id="9122"></path><path d="M0.00256 620.096c394.112 0 552.704-387.648 965.12-400.512 0.64 119.168-2.24 117.44 0 229.76-379.456 0-428.16 400.512-965.12 400.512 1.152-99.392 1.728-100.544 0-229.76" fill="#ffffff" p-id="9123"></path><path d="M0.00256 525.44c387.648-6.4 432.384 331.84 965.12 366.592 0.64-123.392-2.24 62.208 0-54.144C461.12256 791.68 419.39456 471.36 0.00256 471.36c1.152 103.424 1.728-79.296 0 54.08" fill="#ffffff" p-id="9124"></path><path d="M987.20256 917.312a22.4 22.4 0 0 0 21.952-22.72V158.08a22.4 22.4 0 0 0-22.016-22.72 22.4 22.4 0 0 0-21.952 22.72v736.512a22.4 22.4 0 0 0 22.016 22.72m-965.184 0a22.4 22.4 0 0 0 22.016-22.72V158.08A22.4 22.4 0 0 0 22.01856 135.36 22.4 22.4 0 0 0 0.00256 158.08v736.512a22.4 22.4 0 0 0 22.016 22.72" fill="#ffffff" p-id="9125"></path></svg>