<?xml version="1.0" standalone="no"?><!DOCTYPE svg PUBLIC "-//W3C//DTD SVG 1.1//EN" "http://www.w3.org/Graphics/SVG/1.1/DTD/svg11.dtd"><svg t="1721349607644" class="icon" viewBox="0 0 1024 1024" version="1.1" xmlns="http://www.w3.org/2000/svg" p-id="4476" xmlns:xlink="http://www.w3.org/1999/xlink" width="200" height="200"><path d="M855.98 812.8H188.272V202.653c0-12.664-10.36-23.025-23.024-23.025s-23.024 10.361-23.024 23.025v656.195h713.758c12.662 0 23.023-10.361 23.023-23.024S868.642 812.8 855.98 812.8z" p-id="4477"></path><path d="M633.397 608.445a68.058 68.058 0 1 0 139.289 0 68.058 68.058 0 1 0-139.29 0zM580.224 445.94c34.188 0 61.906-27.719 61.906-61.906 0-34.189-27.718-61.907-61.906-61.907s-61.907 27.718-61.907 61.907c0 34.187 27.718 61.906 61.907 61.906zM726.256 331.5c34.187 0 61.905-27.719 61.905-61.907 0-34.19-27.717-61.907-61.905-61.907s-61.906 27.718-61.906 61.907c0 34.188 27.718 61.907 61.906 61.907z m52.46 160.871c34.189 0 61.908-27.719 61.908-61.907s-27.719-61.906-61.907-61.906c-34.188 0-61.907 27.717-61.907 61.906 0.001 34.189 27.72 61.907 61.907 61.907zM215.539 654.875c0 29.917 24.258 54.167 54.167 54.167s54.167-24.251 54.167-54.167c0-29.918-24.256-54.168-54.167-54.168-29.909-0.002-54.167 24.249-54.167 54.167m154.763-85.12c42.74 0 77.382-34.64 77.382-77.385 0-42.732-34.64-77.381-77.382-77.381-42.742 0-77.382 34.646-77.382 77.381 0 42.742 34.64 77.385 77.382 77.385z m15.475 147.027c0 29.917 24.257 54.167 54.17 54.167 29.908 0 54.168-24.25 54.168-54.167 0-29.918-24.259-54.17-54.169-54.17-29.91-0.001-54.169 24.251-54.169 54.17zM532.8 662.61c29.909 0 54.167-24.25 54.167-54.167 0-29.916-24.258-54.165-54.167-54.165s-54.165 24.249-54.165 54.165c0 29.918 24.257 54.167 54.164 54.167z" p-id="4478"></path></svg>