<?xml version="1.0" standalone="no"?><!DOCTYPE svg PUBLIC "-//W3C//DTD SVG 1.1//EN" "http://www.w3.org/Graphics/SVG/1.1/DTD/svg11.dtd"><svg t="1721461476988" class="icon" viewBox="0 0 1024 1024" version="1.1" xmlns="http://www.w3.org/2000/svg" p-id="4461" xmlns:xlink="http://www.w3.org/1999/xlink" width="200" height="200"><path d="M957.376 597.696a229.184 229.184 0 0 1-230.848 227.52h-461.44a198.784 198.784 0 0 1-53.312-391.168 289.728 289.728 0 0 1 549.76-61.312 228.608 228.608 0 0 1 195.968 224.96z m-230.848 170.624a170.56 170.56 0 0 0 12.224-340.864l-19.2-1.28-6.4-17.6a231.616 231.616 0 0 0-447.424 51.968l-2.24 21.76-21.952 3.392a142.08 142.08 0 0 0 22.976 282.688h462.016zM365.76 464a42.688 42.688 0 1 1 43.264-42.688 42.944 42.944 0 0 1-43.264 42.688z m-28.864 56.896a28.864 28.864 0 0 1 57.6 0v170.624a28.864 28.864 0 0 1-57.6 0z m273.792-84.992H466.752a28.48 28.48 0 1 1 0-56.896h172.8a28.672 28.672 0 0 1 28.864 28.48v284.416a28.864 28.864 0 0 1-57.6 0v-256zM466.432 521.216a28.48 28.48 0 1 1 0-56.896h86.656a28.48 28.48 0 1 1 0 56.896z m-28.544 56.576a28.672 28.672 0 0 1 28.864-28.416h86.336a28.672 28.672 0 0 1 28.864 28.416v85.312a28.672 28.672 0 0 1-28.864 28.416H466.752a28.672 28.672 0 0 1-28.864-28.416V577.792z m57.6 28.416v28.416h28.864v-28.416h-28.864z m0 0" p-id="4462"></path><path d="M365.76 464a42.688 42.688 0 1 1 43.264-42.688 43.008 43.008 0 0 1-43.264 42.688z m-28.864 56.896a28.864 28.864 0 0 1 57.6 0v170.368a28.864 28.864 0 0 1-57.6 0z m274.112-85.312H466.752a28.48 28.48 0 1 1 0-56.896h172.8a28.672 28.672 0 0 1 28.864 28.416v284.16a28.864 28.864 0 0 1-57.6 0zM466.752 520.896a28.48 28.48 0 1 1 0-56.896h86.592a28.48 28.48 0 1 1 0 56.896z m-28.864 56.896a28.672 28.672 0 0 1 28.864-28.416h86.592a28.672 28.672 0 0 1 28.864 28.416v85.312a28.672 28.672 0 0 1-28.864 28.416H466.752a28.672 28.672 0 0 1-28.864-28.416V577.792z m57.6 28.416v28.416h28.864v-28.416z m0 0" p-id="4463"></path></svg>