<svg xmlns="http://www.w3.org/2000/svg" width="14" height="14" viewBox="0 0 14 14" fill="none">
  <path d="M8.80415 3.94336H3.63489C2.73333 3.94336 2 4.67669 2 5.57825V10.7475C2 11.6491 2.73333 12.3824 3.63489 12.3824H8.80415C9.70571 12.3824 10.439 11.6491 10.439 10.7475V5.57825C10.439 4.67669 9.70571 3.94336 8.80415 3.94336ZM9.43459 10.7459C9.43459 11.0938 9.15203 11.3763 8.80415 11.3763H3.63489C3.28701 11.3763 3.00445 11.0938 3.00445 10.7459V5.57825C3.00445 5.23037 3.28701 4.94781 3.63489 4.94781H8.80415C9.15203 4.94781 9.43459 5.23037 9.43459 5.57825V10.7459Z" fill="#ffffff"/>
  <path d="M12.3935 8.94134V3.80638H12.3919V3.67082C12.3919 2.74967 11.6422 2 10.721 2H5.40968C5.39335 2 5.37865 2.00163 5.36232 2.00163H5.35089C5.33782 2 5.32475 2 5.30842 2C5.02423 2 4.79395 2.23029 4.79395 2.51448C4.79395 2.79703 5.02423 3.02732 5.30679 3.02895L5.45378 3.03059H10.7227C11.0755 3.03059 11.3629 3.31804 11.3629 3.67082V8.94134C11.3629 8.97074 11.3629 8.99851 11.3645 9.02627C11.3645 9.05404 11.3662 9.0818 11.3662 9.10957C11.3678 9.39049 11.5981 9.62078 11.8806 9.62078C12.1648 9.62078 12.3951 9.39049 12.3951 9.1063C12.3951 9.0916 12.3935 9.07201 12.3919 9.05567V9.03934C12.3919 9.00178 12.3935 8.97074 12.3935 8.94134Z" fill="#ffffff"/>
</svg>