<svg width="12" height="12" viewBox="0 0 12 12" fill="none" xmlns="http://www.w3.org/2000/svg">
<path fill-rule="evenodd" clip-rule="evenodd" d="M7.75804 1.83694C7.2019 1.60123 6.61016 1.48214 6 1.48214C5.38984 1.48214 4.7981 1.60246 4.24196 1.83694C3.70424 2.06406 3.22054 2.39062 2.80558 2.80558C2.39062 3.22054 2.06406 3.70424 1.83694 4.24196C1.60123 4.7981 1.48214 5.38984 1.48214 6C1.48214 6.61016 1.60123 7.2019 1.83694 7.75804C2.06406 8.29576 2.39062 8.77946 2.80558 9.19442C3.22054 9.60938 3.70424 9.93594 4.24196 10.1631C4.7981 10.3988 5.38984 10.5179 6 10.5179C6.61016 10.5179 7.2019 10.3988 7.75804 10.1631C8.29576 9.93594 8.77946 9.60938 9.19442 9.19442C9.60938 8.77946 9.93594 8.29576 10.1631 7.75804C10.3988 7.2019 10.5179 6.61016 10.5179 6C10.5179 5.38984 10.3988 4.7981 10.1631 4.24196C9.93594 3.70424 9.60938 3.22054 9.19442 2.80558C8.77946 2.39062 8.29576 2.06406 7.75804 1.83694ZM0.5 6C0.5 2.96272 2.96272 0.5 6 0.5C9.03728 0.5 11.5 2.96272 11.5 6C11.5 9.03728 9.03728 11.5 6 11.5C2.96272 11.5 0.5 9.03728 0.5 6ZM6.51817 5.48043H8.67533C8.9251 5.48043 9.12946 5.68479 9.12946 5.93457C9.12946 6.18435 8.9251 6.38871 8.67533 6.38871H6.51817V8.54586C6.51817 8.79564 6.31381 9 6.06403 9C5.81426 9 5.6099 8.79564 5.6099 8.54586V6.38871H3.45274C3.20297 6.38871 2.9986 6.18435 2.9986 5.93457C2.9986 5.68479 3.20297 5.48043 3.45274 5.48043H5.6099V3.32328C5.6099 3.0735 5.81426 2.86914 6.06403 2.86914C6.31381 2.86914 6.51817 3.0735 6.51817 3.32328V5.48043Z" fill="#595959"/>
</svg>
